<svg aria-hidden="true" style="position: absolute; width: 0; height: 0; overflow: hidden;" version="1.1" xmlns="http://www.w3.org/2000/svg" xmlns:xlink="http://www.w3.org/1999/xlink">
<defs>
<symbol id="icon-hamburgerBar" viewBox="0 0 36 32">
<path d="M1.199 4.002c0-0.637 0.253-1.247 0.703-1.697s1.061-0.703 1.697-0.703h28.8c0.637 0 1.247 0.253 1.697 0.703s0.703 1.061 0.703 1.697-0.253 1.247-0.703 1.697c-0.45 0.45-1.060 0.703-1.697 0.703h-28.8c-0.637 0-1.247-0.253-1.697-0.703s-0.703-1.061-0.703-1.697z"></path>
<path d="M1.199 16.002c0-0.637 0.253-1.247 0.703-1.697s1.061-0.703 1.697-0.703h28.8c0.637 0 1.247 0.253 1.697 0.703s0.703 1.061 0.703 1.697-0.253 1.247-0.703 1.697c-0.45 0.45-1.060 0.703-1.697 0.703h-28.8c-0.637 0-1.247-0.253-1.697-0.703s-0.703-1.061-0.703-1.697z"></path>
<path d="M1.199 28.002c0-0.637 0.253-1.247 0.703-1.697s1.061-0.703 1.697-0.703h28.8c0.637 0 1.247 0.253 1.697 0.703s0.703 1.060 0.703 1.697c0 0.636-0.253 1.247-0.703 1.697s-1.060 0.703-1.697 0.703h-28.8c-0.637 0-1.247-0.253-1.697-0.703s-0.703-1.061-0.703-1.697z"></path>
</symbol>
<symbol id="icon-search" viewBox="0 0 32 32">
<path d="M31.008 27.231l-7.58-6.447c-0.784-0.705-1.622-1.029-2.299-0.998 1.789-2.096 2.87-4.815 2.87-7.787 0-6.627-5.373-12-12-12s-12 5.373-12 12 5.373 12 12 12c2.972 0 5.691-1.081 7.787-2.87-0.031 0.677 0.293 1.515 0.998 2.299l6.447 7.58c1.104 1.226 2.907 1.33 4.007 0.23s0.997-2.903-0.23-4.007zM12 20c-4.418 0-8-3.582-8-8s3.582-8 8-8 8 3.582 8 8-3.582 8-8 8z"></path>
</symbol>
</defs>
</svg>
